<svg width="165" height="50" viewBox="0 0 165 50" fill="none" xmlns="http://www.w3.org/2000/svg">
<g clip-path="url(#clip0_268_275)">
<mask id="path-1-outside-1_268_275" maskUnits="userSpaceOnUse" x="43.0801" y="9.47998" width="114" height="31" fill="black">
<rect fill="white" x="43.0801" y="9.47998" width="114" height="31"/>
<path d="M46.7201 39.32C45.8934 39.32 45.2401 39.0933 44.7601 38.64C44.3067 38.16 44.0801 37.48 44.0801 36.6V13.52C44.0801 12.64 44.3067 11.9733 44.7601 11.52C45.2401 11.04 45.9201 10.8 46.8001 10.8H60.7601C61.4534 10.8 61.9734 10.9733 62.3201 11.32C62.6667 11.6666 62.8401 12.16 62.8401 12.8C62.8401 13.4666 62.6667 13.9866 62.3201 14.36C61.9734 14.7066 61.4534 14.88 60.7601 14.88H49.2001V22.84H59.9201C60.5867 22.84 61.0934 23.0133 61.4401 23.36C61.8134 23.7066 62.0001 24.2 62.0001 24.84C62.0001 25.5066 61.8134 26.0266 61.4401 26.4C61.0934 26.7466 60.5867 26.92 59.9201 26.92H49.2001V36.6C49.2001 38.4133 48.3734 39.32 46.7201 39.32Z"/>
<path d="M73.1426 39.4C70.9292 39.4 69.2626 38.7733 68.1426 37.52C67.0226 36.24 66.4626 34.3733 66.4626 31.92V13C66.4626 12.1733 66.6759 11.5466 67.1026 11.12C67.5292 10.6933 68.1426 10.48 68.9426 10.48C69.7426 10.48 70.3559 10.6933 70.7826 11.12C71.2359 11.5466 71.4626 12.1733 71.4626 13V31.68C71.4626 32.9067 71.7159 33.8133 72.2226 34.4C72.7559 34.9866 73.5026 35.28 74.4626 35.28C74.6759 35.28 74.8759 35.28 75.0626 35.28C75.2492 35.2533 75.4359 35.2266 75.6226 35.2C75.9959 35.1466 76.2492 35.2533 76.3826 35.52C76.5159 35.76 76.5826 36.2666 76.5826 37.04C76.5826 37.7066 76.4492 38.2267 76.1826 38.6C75.9159 38.9733 75.4759 39.2 74.8626 39.28C74.5959 39.3067 74.3159 39.3333 74.0226 39.36C73.7292 39.3867 73.4359 39.4 73.1426 39.4Z"/>
<path d="M85.116 39.4C83.4893 39.4 82.1427 39.1066 81.076 38.52C80.0093 37.9067 79.2093 37 78.676 35.8C78.1693 34.6 77.916 33.1066 77.916 31.32V21.64C77.916 20.7866 78.1293 20.16 78.556 19.76C78.9827 19.3333 79.596 19.12 80.396 19.12C81.196 19.12 81.8093 19.3333 82.236 19.76C82.6894 20.16 82.916 20.7866 82.916 21.64V31.4C82.916 32.7866 83.196 33.8133 83.756 34.48C84.316 35.1466 85.2093 35.48 86.436 35.48C87.7693 35.48 88.8627 35.0266 89.716 34.12C90.5693 33.1866 90.996 31.96 90.996 30.44V21.64C90.996 20.7866 91.2094 20.16 91.636 19.76C92.0627 19.3333 92.676 19.12 93.476 19.12C94.276 19.12 94.8893 19.3333 95.316 19.76C95.7693 20.16 95.996 20.7866 95.996 21.64V36.76C95.996 38.4667 95.1827 39.32 93.556 39.32C92.7827 39.32 92.1827 39.1066 91.756 38.68C91.3293 38.2267 91.116 37.5866 91.116 36.76V33.72L91.676 34.92C91.116 36.36 90.2627 37.4667 89.116 38.24C87.996 39.0133 86.6627 39.4 85.116 39.4Z"/>
<path d="M109.64 39.4C107.427 39.4 105.52 38.9866 103.92 38.16C102.32 37.3333 101.08 36.16 100.2 34.64C99.3467 33.12 98.9201 31.32 98.9201 29.24C98.9201 27.2133 99.3334 25.44 100.16 23.92C101.013 22.4 102.173 21.2133 103.64 20.36C105.133 19.48 106.827 19.04 108.72 19.04C110.107 19.04 111.347 19.2666 112.44 19.72C113.56 20.1733 114.507 20.8266 115.28 21.68C116.08 22.5333 116.68 23.5733 117.08 24.8C117.507 26 117.72 27.36 117.72 28.88C117.72 29.36 117.547 29.7333 117.2 30C116.88 30.24 116.413 30.36 115.8 30.36H102.96V27.48H114.2L113.56 28.08C113.56 26.8533 113.373 25.8266 113 25C112.653 24.1733 112.133 23.5466 111.44 23.12C110.773 22.6666 109.933 22.44 108.92 22.44C107.8 22.44 106.84 22.7066 106.04 23.24C105.267 23.7466 104.667 24.48 104.24 25.44C103.84 26.3733 103.64 27.4933 103.64 28.8V29.08C103.64 31.2666 104.147 32.9066 105.16 34C106.2 35.0667 107.72 35.6 109.72 35.6C110.413 35.6 111.187 35.52 112.04 35.36C112.92 35.1733 113.747 34.8666 114.52 34.44C115.08 34.12 115.573 33.9866 116 34.04C116.427 34.0666 116.76 34.2133 117 34.48C117.267 34.7466 117.427 35.08 117.48 35.48C117.533 35.8533 117.453 36.24 117.24 36.64C117.053 37.04 116.72 37.3867 116.24 37.68C115.307 38.2666 114.227 38.7066 113 39C111.8 39.2666 110.68 39.4 109.64 39.4Z"/>
<path d="M122.96 39.32C122.16 39.32 121.546 39.1066 121.12 38.68C120.693 38.2267 120.48 37.5866 120.48 36.76V21.64C120.48 20.8133 120.693 20.1866 121.12 19.76C121.546 19.3333 122.146 19.12 122.92 19.12C123.693 19.12 124.293 19.3333 124.72 19.76C125.146 20.1866 125.36 20.8133 125.36 21.64V24.36L124.92 23.36C125.506 21.9466 126.413 20.88 127.64 20.16C128.893 19.4133 130.306 19.04 131.88 19.04C133.453 19.04 134.746 19.3333 135.76 19.92C136.773 20.5066 137.533 21.4 138.04 22.6C138.546 23.7733 138.8 25.2666 138.8 27.08V36.76C138.8 37.5866 138.586 38.2267 138.16 38.68C137.733 39.1066 137.12 39.32 136.32 39.32C135.52 39.32 134.893 39.1066 134.44 38.68C134.013 38.2267 133.8 37.5866 133.8 36.76V27.32C133.8 25.8 133.506 24.6933 132.92 24C132.36 23.3066 131.48 22.96 130.28 22.96C128.813 22.96 127.64 23.4266 126.76 24.36C125.906 25.2666 125.48 26.48 125.48 28V36.76C125.48 38.4667 124.64 39.32 122.96 39.32Z"/>
<path d="M151.638 39.4C149.905 39.4 148.452 39.1066 147.278 38.52C146.132 37.9333 145.278 37.08 144.718 35.96C144.158 34.8133 143.878 33.4 143.878 31.72V23.2H141.798C141.158 23.2 140.665 23.04 140.318 22.72C139.972 22.3733 139.798 21.9066 139.798 21.32C139.798 20.7066 139.972 20.24 140.318 19.92C140.665 19.6 141.158 19.44 141.798 19.44H143.878V15.8C143.878 14.9733 144.092 14.3466 144.518 13.92C144.972 13.4933 145.598 13.28 146.398 13.28C147.198 13.28 147.812 13.4933 148.238 13.92C148.665 14.3466 148.878 14.9733 148.878 15.8V19.44H153.118C153.758 19.44 154.252 19.6 154.598 19.92C154.945 20.24 155.118 20.7066 155.118 21.32C155.118 21.9066 154.945 22.3733 154.598 22.72C154.252 23.04 153.758 23.2 153.118 23.2H148.878V31.44C148.878 32.72 149.158 33.68 149.718 34.32C150.278 34.96 151.185 35.28 152.438 35.28C152.892 35.28 153.292 35.24 153.638 35.16C153.985 35.08 154.292 35.0266 154.558 35C154.878 34.9733 155.145 35.08 155.358 35.32C155.572 35.5333 155.678 35.9867 155.678 36.68C155.678 37.2133 155.585 37.6933 155.398 38.12C155.238 38.52 154.932 38.8 154.478 38.96C154.132 39.0666 153.678 39.16 153.118 39.24C152.558 39.3466 152.065 39.4 151.638 39.4Z"/>
</mask>
<path d="M46.7201 39.32C45.8934 39.32 45.2401 39.0933 44.7601 38.64C44.3067 38.16 44.0801 37.48 44.0801 36.6V13.52C44.0801 12.64 44.3067 11.9733 44.7601 11.52C45.2401 11.04 45.9201 10.8 46.8001 10.8H60.7601C61.4534 10.8 61.9734 10.9733 62.3201 11.32C62.6667 11.6666 62.8401 12.16 62.8401 12.8C62.8401 13.4666 62.6667 13.9866 62.3201 14.36C61.9734 14.7066 61.4534 14.88 60.7601 14.88H49.2001V22.84H59.9201C60.5867 22.84 61.0934 23.0133 61.4401 23.36C61.8134 23.7066 62.0001 24.2 62.0001 24.84C62.0001 25.5066 61.8134 26.0266 61.4401 26.4C61.0934 26.7466 60.5867 26.92 59.9201 26.92H49.2001V36.6C49.2001 38.4133 48.3734 39.32 46.7201 39.32Z" fill="#576FEB"/>
<path d="M73.1426 39.4C70.9292 39.4 69.2626 38.7733 68.1426 37.52C67.0226 36.24 66.4626 34.3733 66.4626 31.92V13C66.4626 12.1733 66.6759 11.5466 67.1026 11.12C67.5292 10.6933 68.1426 10.48 68.9426 10.48C69.7426 10.48 70.3559 10.6933 70.7826 11.12C71.2359 11.5466 71.4626 12.1733 71.4626 13V31.68C71.4626 32.9067 71.7159 33.8133 72.2226 34.4C72.7559 34.9866 73.5026 35.28 74.4626 35.28C74.6759 35.28 74.8759 35.28 75.0626 35.28C75.2492 35.2533 75.4359 35.2266 75.6226 35.2C75.9959 35.1466 76.2492 35.2533 76.3826 35.52C76.5159 35.76 76.5826 36.2666 76.5826 37.04C76.5826 37.7066 76.4492 38.2267 76.1826 38.6C75.9159 38.9733 75.4759 39.2 74.8626 39.28C74.5959 39.3067 74.3159 39.3333 74.0226 39.36C73.7292 39.3867 73.4359 39.4 73.1426 39.4Z" fill="#576FEB"/>
<path d="M85.116 39.4C83.4893 39.4 82.1427 39.1066 81.076 38.52C80.0093 37.9067 79.2093 37 78.676 35.8C78.1693 34.6 77.916 33.1066 77.916 31.32V21.64C77.916 20.7866 78.1293 20.16 78.556 19.76C78.9827 19.3333 79.596 19.12 80.396 19.12C81.196 19.12 81.8093 19.3333 82.236 19.76C82.6894 20.16 82.916 20.7866 82.916 21.64V31.4C82.916 32.7866 83.196 33.8133 83.756 34.48C84.316 35.1466 85.2093 35.48 86.436 35.48C87.7693 35.48 88.8627 35.0266 89.716 34.12C90.5693 33.1866 90.996 31.96 90.996 30.44V21.64C90.996 20.7866 91.2094 20.16 91.636 19.76C92.0627 19.3333 92.676 19.12 93.476 19.12C94.276 19.12 94.8893 19.3333 95.316 19.76C95.7693 20.16 95.996 20.7866 95.996 21.64V36.76C95.996 38.4667 95.1827 39.32 93.556 39.32C92.7827 39.32 92.1827 39.1066 91.756 38.68C91.3293 38.2267 91.116 37.5866 91.116 36.76V33.72L91.676 34.92C91.116 36.36 90.2627 37.4667 89.116 38.24C87.996 39.0133 86.6627 39.4 85.116 39.4Z" fill="#576FEB"/>
<path d="M109.64 39.4C107.427 39.4 105.52 38.9866 103.92 38.16C102.32 37.3333 101.08 36.16 100.2 34.64C99.3467 33.12 98.9201 31.32 98.9201 29.24C98.9201 27.2133 99.3334 25.44 100.16 23.92C101.013 22.4 102.173 21.2133 103.64 20.36C105.133 19.48 106.827 19.04 108.72 19.04C110.107 19.04 111.347 19.2666 112.44 19.72C113.56 20.1733 114.507 20.8266 115.28 21.68C116.08 22.5333 116.68 23.5733 117.08 24.8C117.507 26 117.72 27.36 117.72 28.88C117.72 29.36 117.547 29.7333 117.2 30C116.88 30.24 116.413 30.36 115.8 30.36H102.96V27.48H114.2L113.56 28.08C113.56 26.8533 113.373 25.8266 113 25C112.653 24.1733 112.133 23.5466 111.44 23.12C110.773 22.6666 109.933 22.44 108.92 22.44C107.8 22.44 106.84 22.7066 106.04 23.24C105.267 23.7466 104.667 24.48 104.24 25.44C103.84 26.3733 103.64 27.4933 103.64 28.8V29.08C103.64 31.2666 104.147 32.9066 105.16 34C106.2 35.0667 107.72 35.6 109.72 35.6C110.413 35.6 111.187 35.52 112.04 35.36C112.92 35.1733 113.747 34.8666 114.52 34.44C115.08 34.12 115.573 33.9866 116 34.04C116.427 34.0666 116.76 34.2133 117 34.48C117.267 34.7466 117.427 35.08 117.48 35.48C117.533 35.8533 117.453 36.24 117.24 36.64C117.053 37.04 116.72 37.3867 116.24 37.68C115.307 38.2666 114.227 38.7066 113 39C111.8 39.2666 110.68 39.4 109.64 39.4Z" fill="#576FEB"/>
<path d="M122.96 39.32C122.16 39.32 121.546 39.1066 121.12 38.68C120.693 38.2267 120.48 37.5866 120.48 36.76V21.64C120.48 20.8133 120.693 20.1866 121.12 19.76C121.546 19.3333 122.146 19.12 122.92 19.12C123.693 19.12 124.293 19.3333 124.72 19.76C125.146 20.1866 125.36 20.8133 125.36 21.64V24.36L124.92 23.36C125.506 21.9466 126.413 20.88 127.64 20.16C128.893 19.4133 130.306 19.04 131.88 19.04C133.453 19.04 134.746 19.3333 135.76 19.92C136.773 20.5066 137.533 21.4 138.04 22.6C138.546 23.7733 138.8 25.2666 138.8 27.08V36.76C138.8 37.5866 138.586 38.2267 138.16 38.68C137.733 39.1066 137.12 39.32 136.32 39.32C135.52 39.32 134.893 39.1066 134.44 38.68C134.013 38.2267 133.8 37.5866 133.8 36.76V27.32C133.8 25.8 133.506 24.6933 132.92 24C132.36 23.3066 131.48 22.96 130.28 22.96C128.813 22.96 127.64 23.4266 126.76 24.36C125.906 25.2666 125.48 26.48 125.48 28V36.76C125.48 38.4667 124.64 39.32 122.96 39.32Z" fill="#576FEB"/>
<path d="M151.638 39.4C149.905 39.4 148.452 39.1066 147.278 38.52C146.132 37.9333 145.278 37.08 144.718 35.96C144.158 34.8133 143.878 33.4 143.878 31.72V23.2H141.798C141.158 23.2 140.665 23.04 140.318 22.72C139.972 22.3733 139.798 21.9066 139.798 21.32C139.798 20.7066 139.972 20.24 140.318 19.92C140.665 19.6 141.158 19.44 141.798 19.44H143.878V15.8C143.878 14.9733 144.092 14.3466 144.518 13.92C144.972 13.4933 145.598 13.28 146.398 13.28C147.198 13.28 147.812 13.4933 148.238 13.92C148.665 14.3466 148.878 14.9733 148.878 15.8V19.44H153.118C153.758 19.44 154.252 19.6 154.598 19.92C154.945 20.24 155.118 20.7066 155.118 21.32C155.118 21.9066 154.945 22.3733 154.598 22.72C154.252 23.04 153.758 23.2 153.118 23.2H148.878V31.44C148.878 32.72 149.158 33.68 149.718 34.32C150.278 34.96 151.185 35.28 152.438 35.28C152.892 35.28 153.292 35.24 153.638 35.16C153.985 35.08 154.292 35.0266 154.558 35C154.878 34.9733 155.145 35.08 155.358 35.32C155.572 35.5333 155.678 35.9867 155.678 36.68C155.678 37.2133 155.585 37.6933 155.398 38.12C155.238 38.52 154.932 38.8 154.478 38.96C154.132 39.0666 153.678 39.16 153.118 39.24C152.558 39.3466 152.065 39.4 151.638 39.4Z" fill="#576FEB"/>
<path d="M46.7201 39.32C45.8934 39.32 45.2401 39.0933 44.7601 38.64C44.3067 38.16 44.0801 37.48 44.0801 36.6V13.52C44.0801 12.64 44.3067 11.9733 44.7601 11.52C45.2401 11.04 45.9201 10.8 46.8001 10.8H60.7601C61.4534 10.8 61.9734 10.9733 62.3201 11.32C62.6667 11.6666 62.8401 12.16 62.8401 12.8C62.8401 13.4666 62.6667 13.9866 62.3201 14.36C61.9734 14.7066 61.4534 14.88 60.7601 14.88H49.2001V22.84H59.9201C60.5867 22.84 61.0934 23.0133 61.4401 23.36C61.8134 23.7066 62.0001 24.2 62.0001 24.84C62.0001 25.5066 61.8134 26.0266 61.4401 26.4C61.0934 26.7466 60.5867 26.92 59.9201 26.92H49.2001V36.6C49.2001 38.4133 48.3734 39.32 46.7201 39.32Z" stroke="#2D3D8F" mask="url(#path-1-outside-1_268_275)"/>
<path d="M73.1426 39.4C70.9292 39.4 69.2626 38.7733 68.1426 37.52C67.0226 36.24 66.4626 34.3733 66.4626 31.92V13C66.4626 12.1733 66.6759 11.5466 67.1026 11.12C67.5292 10.6933 68.1426 10.48 68.9426 10.48C69.7426 10.48 70.3559 10.6933 70.7826 11.12C71.2359 11.5466 71.4626 12.1733 71.4626 13V31.68C71.4626 32.9067 71.7159 33.8133 72.2226 34.4C72.7559 34.9866 73.5026 35.28 74.4626 35.28C74.6759 35.28 74.8759 35.28 75.0626 35.28C75.2492 35.2533 75.4359 35.2266 75.6226 35.2C75.9959 35.1466 76.2492 35.2533 76.3826 35.52C76.5159 35.76 76.5826 36.2666 76.5826 37.04C76.5826 37.7066 76.4492 38.2267 76.1826 38.6C75.9159 38.9733 75.4759 39.2 74.8626 39.28C74.5959 39.3067 74.3159 39.3333 74.0226 39.36C73.7292 39.3867 73.4359 39.4 73.1426 39.4Z" stroke="#2D3D8F" mask="url(#path-1-outside-1_268_275)"/>
<path d="M85.116 39.4C83.4893 39.4 82.1427 39.1066 81.076 38.52C80.0093 37.9067 79.2093 37 78.676 35.8C78.1693 34.6 77.916 33.1066 77.916 31.32V21.64C77.916 20.7866 78.1293 20.16 78.556 19.76C78.9827 19.3333 79.596 19.12 80.396 19.12C81.196 19.12 81.8093 19.3333 82.236 19.76C82.6894 20.16 82.916 20.7866 82.916 21.64V31.4C82.916 32.7866 83.196 33.8133 83.756 34.48C84.316 35.1466 85.2093 35.48 86.436 35.48C87.7693 35.48 88.8627 35.0266 89.716 34.12C90.5693 33.1866 90.996 31.96 90.996 30.44V21.64C90.996 20.7866 91.2094 20.16 91.636 19.76C92.0627 19.3333 92.676 19.12 93.476 19.12C94.276 19.12 94.8893 19.3333 95.316 19.76C95.7693 20.16 95.996 20.7866 95.996 21.64V36.76C95.996 38.4667 95.1827 39.32 93.556 39.32C92.7827 39.32 92.1827 39.1066 91.756 38.68C91.3293 38.2267 91.116 37.5866 91.116 36.76V33.72L91.676 34.92C91.116 36.36 90.2627 37.4667 89.116 38.24C87.996 39.0133 86.6627 39.4 85.116 39.4Z" stroke="#2D3D8F" mask="url(#path-1-outside-1_268_275)"/>
<path d="M109.64 39.4C107.427 39.4 105.52 38.9866 103.92 38.16C102.32 37.3333 101.08 36.16 100.2 34.64C99.3467 33.12 98.9201 31.32 98.9201 29.24C98.9201 27.2133 99.3334 25.44 100.16 23.92C101.013 22.4 102.173 21.2133 103.64 20.36C105.133 19.48 106.827 19.04 108.72 19.04C110.107 19.04 111.347 19.2666 112.44 19.72C113.56 20.1733 114.507 20.8266 115.28 21.68C116.08 22.5333 116.68 23.5733 117.08 24.8C117.507 26 117.72 27.36 117.72 28.88C117.72 29.36 117.547 29.7333 117.2 30C116.88 30.24 116.413 30.36 115.8 30.36H102.96V27.48H114.2L113.56 28.08C113.56 26.8533 113.373 25.8266 113 25C112.653 24.1733 112.133 23.5466 111.44 23.12C110.773 22.6666 109.933 22.44 108.92 22.44C107.8 22.44 106.84 22.7066 106.04 23.24C105.267 23.7466 104.667 24.48 104.24 25.44C103.84 26.3733 103.64 27.4933 103.64 28.8V29.08C103.64 31.2666 104.147 32.9066 105.16 34C106.2 35.0667 107.72 35.6 109.72 35.6C110.413 35.6 111.187 35.52 112.04 35.36C112.92 35.1733 113.747 34.8666 114.52 34.44C115.08 34.12 115.573 33.9866 116 34.04C116.427 34.0666 116.76 34.2133 117 34.48C117.267 34.7466 117.427 35.08 117.48 35.48C117.533 35.8533 117.453 36.24 117.24 36.64C117.053 37.04 116.72 37.3867 116.24 37.68C115.307 38.2666 114.227 38.7066 113 39C111.8 39.2666 110.68 39.4 109.64 39.4Z" stroke="#2D3D8F" mask="url(#path-1-outside-1_268_275)"/>
<path d="M122.96 39.32C122.16 39.32 121.546 39.1066 121.12 38.68C120.693 38.2267 120.48 37.5866 120.48 36.76V21.64C120.48 20.8133 120.693 20.1866 121.12 19.76C121.546 19.3333 122.146 19.12 122.92 19.12C123.693 19.12 124.293 19.3333 124.72 19.76C125.146 20.1866 125.36 20.8133 125.36 21.64V24.36L124.92 23.36C125.506 21.9466 126.413 20.88 127.64 20.16C128.893 19.4133 130.306 19.04 131.88 19.04C133.453 19.04 134.746 19.3333 135.76 19.92C136.773 20.5066 137.533 21.4 138.04 22.6C138.546 23.7733 138.8 25.2666 138.8 27.08V36.76C138.8 37.5866 138.586 38.2267 138.16 38.68C137.733 39.1066 137.12 39.32 136.32 39.32C135.52 39.32 134.893 39.1066 134.44 38.68C134.013 38.2267 133.8 37.5866 133.8 36.76V27.32C133.8 25.8 133.506 24.6933 132.92 24C132.36 23.3066 131.48 22.96 130.28 22.96C128.813 22.96 127.64 23.4266 126.76 24.36C125.906 25.2666 125.48 26.48 125.48 28V36.76C125.48 38.4667 124.64 39.32 122.96 39.32Z" stroke="#2D3D8F" mask="url(#path-1-outside-1_268_275)"/>
<path d="M151.638 39.4C149.905 39.4 148.452 39.1066 147.278 38.52C146.132 37.9333 145.278 37.08 144.718 35.96C144.158 34.8133 143.878 33.4 143.878 31.72V23.2H141.798C141.158 23.2 140.665 23.04 140.318 22.72C139.972 22.3733 139.798 21.9066 139.798 21.32C139.798 20.7066 139.972 20.24 140.318 19.92C140.665 19.6 141.158 19.44 141.798 19.44H143.878V15.8C143.878 14.9733 144.092 14.3466 144.518 13.92C144.972 13.4933 145.598 13.28 146.398 13.28C147.198 13.28 147.812 13.4933 148.238 13.92C148.665 14.3466 148.878 14.9733 148.878 15.8V19.44H153.118C153.758 19.44 154.252 19.6 154.598 19.92C154.945 20.24 155.118 20.7066 155.118 21.32C155.118 21.9066 154.945 22.3733 154.598 22.72C154.252 23.04 153.758 23.2 153.118 23.2H148.878V31.44C148.878 32.72 149.158 33.68 149.718 34.32C150.278 34.96 151.185 35.28 152.438 35.28C152.892 35.28 153.292 35.24 153.638 35.16C153.985 35.08 154.292 35.0266 154.558 35C154.878 34.9733 155.145 35.08 155.358 35.32C155.572 35.5333 155.678 35.9867 155.678 36.68C155.678 37.2133 155.585 37.6933 155.398 38.12C155.238 38.52 154.932 38.8 154.478 38.96C154.132 39.0666 153.678 39.16 153.118 39.24C152.558 39.3466 152.065 39.4 151.638 39.4Z" stroke="#2D3D8F" mask="url(#path-1-outside-1_268_275)"/>
<path d="M22.5893 22.1126C22.5893 22.1126 24.0799 22.5876 26.0768 23.6282C29.3986 25.3626 31.4111 28.0907 33.4643 28.2594C35.5955 28.4313 36.6861 27.2032 36.2205 24.6407C35.7861 22.2501 32.258 19.4438 32.258 19.4438C32.258 19.4438 35.4799 20.0501 35.4799 18.2032C35.4799 16.3063 33.7424 15.3938 31.008 14.4532C29.1861 13.8282 24.2861 12.4407 17.7174 14.9282C14.8924 15.9969 11.4424 17.9719 8.82364 21.7563C5.39864 26.7063 4.70489 33.1438 5.35489 38.0313C6.14239 43.9344 8.59864 46.9782 8.65801 47.0032C8.71739 47.0282 9.03926 40.0626 11.7861 37.0407C14.1268 34.4657 16.5205 35.5219 19.3643 35.3813C22.7174 35.2157 24.2143 31.7532 21.6549 29.1126C19.458 26.8438 15.8174 27.0469 15.8174 27.0469C15.8174 27.0469 17.0236 26.5657 19.3143 26.3594C21.9455 26.1188 22.4643 24.5907 22.6518 24.0188C23.0674 22.7563 22.5893 22.1126 22.5893 22.1126Z" fill="#2D3D8F"/>
<path d="M12.9221 18.3437C12.7471 17.3125 15.7846 16.3812 18.9658 16.8812C23.9158 17.6594 27.8346 22.175 29.4971 22.8344C31.9471 23.8094 32.8096 21.8062 31.5815 19.6375C30.3158 17.3969 26.9658 15.4906 27.0908 14.75C27.3158 13.4344 30.7471 15.4375 30.9565 13.975C31.0971 13.0062 28.5346 11.6125 26.1002 10.9906C24.1408 10.4906 20.0252 9.87499 14.3377 12.3531C6.94397 15.5812 3.7471 22.0031 3.21897 28.7312C2.71897 35.1125 5.15647 39.8687 5.15647 39.8687C5.15647 39.8687 5.3221 35.1062 7.7096 32.4844C9.45335 30.5719 11.6908 29.8531 14.119 30.3156C18.169 31.0906 19.9346 28.1625 17.9877 26.0469C16.7127 24.6625 15.0783 24.2312 13.3877 24.175C10.4658 24.0812 8.89397 25.0594 8.8096 24.7281C8.6846 24.225 10.269 23.0594 12.2783 22.2219C14.9221 21.1219 18.1127 21.875 18.6127 19.6625C18.8565 18.5844 18.2471 17.9937 16.5033 17.8656C14.3002 17.7062 12.9346 18.4187 12.9221 18.3437Z" fill="#576FEB"/>
</g>
<defs>
<clipPath id="clip0_268_275">
<rect width="158" height="38" fill="white" transform="translate(0 6)"/>
</clipPath>
</defs>
</svg>
